<?xml version="1.0" encoding="UTF-8" standalone="no"?>
<svg
   id="Layer_1"
   data-name="Layer 1"
   width="782"
   height="146"
   viewBox="0 0 782 146"
   version="1.1"
   sodipodi:docname="google_scholar.svg"
   inkscape:version="1.1.1 (eb90963e84, 2021-10-02)"
   xmlns:inkscape="http://www.inkscape.org/namespaces/inkscape"
   xmlns:sodipodi="http://sodipodi.sourceforge.net/DTD/sodipodi-0.dtd"
   xmlns="http://www.w3.org/2000/svg"
   xmlns:svg="http://www.w3.org/2000/svg">
  <sodipodi:namedview
     id="namedview37"
     pagecolor="#ffffff"
     bordercolor="#666666"
     borderopacity="1.0"
     inkscape:pageshadow="2"
     inkscape:pageopacity="0.0"
     inkscape:pagecheckerboard="0"
     showgrid="false"
     inkscape:zoom="0.87595908"
     inkscape:cx="251.15328"
     inkscape:cy="-11.986861"
     inkscape:window-width="1853"
     inkscape:window-height="1176"
     inkscape:window-x="67"
     inkscape:window-y="0"
     inkscape:window-maximized="1"
     inkscape:current-layer="Layer_1" />
  <defs
     id="defs4">
    <style
       id="style2">.cls-1{fill:#e84335;}.cls-2{fill:#f5bc0f;}.cls-3{fill:#3e81ba;}.cls-4{fill:#319f4f;}.cls-5{fill:#767676;}.cls-6{fill:none;}</style>
  </defs>
  <path
     class="cls-1"
     d="M180,403a29,29,0,1,1-29-29A29,29,0,0,1,180,403Zm-12.7,0c0-10.43-7.55-17.52-16.31-17.52s-16.31,7.12-16.31,17.52,7.55,17.52,16.31,17.52S167.25,413.34,167.25,403Z"
     transform="translate(-9 -327)"
     id="path8" />
  <path
     class="cls-2"
     d="M242.53,403a29,29,0,1,1-29-29A29,29,0,0,1,242.53,403Zm-12.7,0c0-10.43-7.55-17.52-16.31-17.52s-16.31,7.12-16.31,17.52,7.55,17.52,16.31,17.52S229.83,413.34,229.83,403Z"
     transform="translate(-9 -327)"
     id="path10" />
  <path
     class="cls-3"
     d="M302.51,375.87v51.92c0,21.35-12.6,30.08-27.49,30.08a27.52,27.52,0,0,1-25.63-17.05l11.06-4.6c2,4.71,6.79,10.26,14.56,10.26,9.53,0,15.44-5.88,15.44-17v-4.16H290a19.65,19.65,0,0,1-15.23,6.52c-14.45,0-27.7-12.59-27.7-28.8s13.21-29,27.7-29A20.05,20.05,0,0,1,290,380.64h.45v-4.76h12.06Zm-11.16,27.27c0-10.18-6.8-17.62-15.44-17.62s-16.1,7.44-16.1,17.62,7.34,17.42,16.11,17.42S291.35,413.22,291.35,403.14Z"
     transform="translate(-9 -327)"
     id="path12"
     style="fill:#4181f3;fill-opacity:1" />
  <path
     class="cls-4"
     d="M322.39,345.44v84.75H310V345.44Z"
     transform="translate(-9 -327)"
     id="path14"
     style="fill:#31c200;fill-opacity:1" />
  <path
     class="cls-1"
     d="M370.66,412.56l9.85,6.52a28.76,28.76,0,0,1-24.09,12.81c-16.43,0-28.68-12.7-28.68-28.91,0-17.2,12.37-28.92,27.27-28.92s22.35,11.94,24.77,18.39l1.31,3.29L342.42,411.8c3,5.8,7.56,8.76,14,8.76s10.95-3.18,14.24-8Zm-30.34-10.43,25.84-10.73c-1.42-3.61-5.7-6.13-10.73-6.13a15.86,15.86,0,0,0-15.13,16.57c0,.11,0,.21,0,.31Z"
     transform="translate(-9 -327)"
     id="path16" />
  <path
     class="cls-3"
     d="M75,395.52V383.25h41.35a40.76,40.76,0,0,1,.61,7.4c0,9.21-2.52,20.59-10.63,28.69-7.88,8.21-18,12.59-31.29,12.59C50.36,432,29.5,411.79,29.5,387s20.86-44.9,45.56-44.9a42.81,42.81,0,0,1,30.77,12.37l-8.66,8.66A31.28,31.28,0,0,0,75,354.41a32.2,32.2,0,0,0-32.2,32.2V387a32.21,32.21,0,0,0,31.81,32.6H75c11.74,0,18.4-4.71,22.68-9,3.46-3.47,5.75-8.43,6.65-15.19Z"
     transform="translate(-9 -327)"
     id="path18"
     style="fill:#4181f3;fill-opacity:1" />
  <path
     class="cls-5"
     d="M467.48,410.55a20.67,20.67,0,0,1-7.72,16.79,29.24,29.24,0,0,1-18.9,6.22,28,28,0,0,1-17.45-5.77A29.58,29.58,0,0,1,413,412l9.79-4a25.23,25.23,0,0,0,2.78,6.52,21,21,0,0,0,4.22,4.88,19,19,0,0,0,5.22,3.22,16,16,0,0,0,6.11,1.17,17.56,17.56,0,0,0,11.45-3.61,11.73,11.73,0,0,0,4.45-9.62,11.45,11.45,0,0,0-3.67-8.55q-3.43-3.45-12.89-6.68a123.67,123.67,0,0,1-11.89-4.67q-12.68-6.42-12.68-19a19.39,19.39,0,0,1,7-15,25.53,25.53,0,0,1,17.45-6.23,26.87,26.87,0,0,1,15.78,4.67A21.92,21.92,0,0,1,465,366.53l-9.56,4a14.17,14.17,0,0,0-5.22-7.4,17.06,17.06,0,0,0-19.72.39,9.71,9.71,0,0,0-4.12,8.09,9.35,9.35,0,0,0,3.22,7.12c2.37,2,7.52,4.36,15.45,7.12s13.83,6.08,17.27,10.05A21.43,21.43,0,0,1,467.48,410.55Z"
     transform="translate(-9 -327)"
     id="path20" />
  <path
     class="cls-5"
     d="M502.93,433.56a26.89,26.89,0,0,1-20.12-8.22,29.37,29.37,0,0,1-7.89-20.79q0-12.56,7.89-20.78a26.87,26.87,0,0,1,20.12-8.24,25,25,0,0,1,23.9,15.65l-9.34,3.91q-4.28-10.21-15.22-10.21a15.8,15.8,0,0,0-12.12,5.67,22.11,22.11,0,0,0,0,28,15.83,15.83,0,0,0,12.12,5.67q11.22,0,15.78-10.24l9.13,3.91a24.37,24.37,0,0,1-9.4,11.5A26.55,26.55,0,0,1,502.93,433.56Z"
     transform="translate(-9 -327)"
     id="path22" />
  <path
     class="cls-5"
     d="M536.06,352.2h10.22v25.12l-.44,7.56h.44a18.28,18.28,0,0,1,7.17-6.68,20.72,20.72,0,0,1,10.06-2.61q10,0,15.39,5.73t5.39,16.28v34.19H574.07V399.55q0-14.67-13-14.67a13.14,13.14,0,0,0-10.51,5.21,18.39,18.39,0,0,0-4.28,12.06v29.64H536Z"
     transform="translate(-9 -327)"
     id="path24" />
  <path
     class="cls-5"
     d="M593.18,404.55q0-12.56,7.9-20.78a26.87,26.87,0,0,1,20.12-8.24,26.5,26.5,0,0,1,20,8.23q8,8.21,8,20.78t-8,20.8a26.49,26.49,0,0,1-20,8.22,26.85,26.85,0,0,1-20.12-8.22Q593.17,417.12,593.18,404.55Zm10.24,0q0,8.79,5.11,14.23a17.46,17.46,0,0,0,24.68.66c.22-.21.45-.43.66-.66a22.22,22.22,0,0,0,0-28.35,17.23,17.23,0,0,0-24.35-1q-.53.48-1,1A19.75,19.75,0,0,0,603.42,404.55Z"
     transform="translate(-9 -327)"
     id="path26" />
  <path
     class="cls-5"
     d="M668.22,352.2v79.54H657.94V352.2Z"
     transform="translate(-9 -327)"
     id="path28" />
  <path
     class="cls-5"
     d="M700.78,375.53q11.36,0,17.89,6.05t6.52,16.62v33.59h-9.78v-7.56H715q-6.33,9.33-17,9.33A21.92,21.92,0,0,1,683,428.23a17,17,0,0,1-6.06-13.34,16.19,16.19,0,0,1,6.4-13.45c4.25-3.34,10-5,17.05-5a30.29,30.29,0,0,1,15,3.33v-2.34a11.73,11.73,0,0,0-4.22-9.06,14.48,14.48,0,0,0-9.81-3.71,15.66,15.66,0,0,0-13.56,7.22l-9-5.67Q686.24,375.53,700.78,375.53Zm-13.23,39.58a8.19,8.19,0,0,0,3.39,6.67,12.41,12.41,0,0,0,7.95,2.6,16.21,16.21,0,0,0,11.5-4.78,14.9,14.9,0,0,0,5.06-11.23q-4.77-3.78-13.34-3.78a17.37,17.37,0,0,0-10.43,3A8.92,8.92,0,0,0,687.55,415.11Z"
     transform="translate(-9 -327)"
     id="path30" />
  <path
     class="cls-5"
     d="M747,431.79H736.8V377.32h9.8v8.89H747a14.85,14.85,0,0,1,6.39-7.39,17.77,17.77,0,0,1,9.51-3.06,19.35,19.35,0,0,1,7.56,1.31L767.38,387a16.87,16.87,0,0,0-6-.78,13.27,13.27,0,0,0-10.07,4.67,15.7,15.7,0,0,0-4.28,10.9Z"
     transform="translate(-9 -327)"
     id="path32" />
  <rect
     class="cls-6"
     width="782"
     height="146"
     id="rect34" />
</svg>
